<svg xmlns="http://www.w3.org/2000/svg" xmlns:xlink="http://www.w3.org/1999/xlink" width="257" height="257" viewBox="0 0 257 257">
  <defs>
    <circle id="logo-a" cx="125" cy="125" r="124.502"/>
    <linearGradient id="logo-c" x1="50%" x2="50%" y1="100%" y2="0%">
      <stop offset="0%" stop-color="#ED9D4A"/>
      <stop offset="100%" stop-color="#E97423"/>
    </linearGradient>
  </defs>
  <g fill="none" fill-rule="evenodd">
    <circle cx="128" cy="128" r="125" fill="#FFF" transform="translate(.5 .5)"/>
    <g transform="translate(3.5 3.5)">
      <mask id="logo-b" fill="#fff">
        <use xlink:href="#logo-a"/>
      </mask>
      <g mask="url(#logo-b)">
        <g transform="translate(-1.992 -1.992)">
          <rect width="254.98" height="254.98" fill="#E98F33"/>
          <rect width="254.98" height="254.98" fill="url(#logo-c)"/>
        </g>
      </g>
      <g fill="#FFF" mask="url(#logo-b)">
        <g transform="translate(74.701 52.789)">
          <path d="M99.9258369 110.344046C99.7800433 109.624153 99.1968687 109.192218 98.6136942 108.904261L89.4286951 104.584904C89.1371078 104.440926 88.6997269 104.296947 88.262346 104.440926 87.5333778 104.440926 86.658616 104.872862 86.221235 105.592754 80.0979023 115.671252 74.1203632 120.278565 63.6232213 122.870179 60.9989358 123.446093 58.520444 123.878029 56.0419522 124.022008 36.9429857 124.7419 28.778542 108.184368 25.2794948 94.0744709 25.1337011 93.4985568 24.6963202 92.9226426 24.1131457 92.490707 23.6757648 92.2027499 23.2383838 92.0587714 22.8010029 92.2027499 22.6552093 92.2027499 22.5094157 92.2027499 22.363622 92.3467284L12.0122738 94.9383422C11.4290992 95.0823207 10.8459247 95.5142563 10.5543374 96.0901705 10.2627501 96.6660847 10.1169565 97.3859774 10.2627501 97.9618916 17.4066384 124.597922 32.2775893 138.707819 53.2718731 138.851797 55.4587776 139.283733 58.3746504 141.011475 60.7073486 142.307282 63.1858404 143.747068 64.7895704 144.754917 66.3933004 144.754917 66.539094 144.754917 66.8306813 144.754917 66.976475 144.610939 68.7259986 144.179003 69.8923477 142.451261 71.4960777 139.715669 72.6624268 137.843947 74.1203632 135.684269 75.5782995 134.100505 85.7838541 129.925128 92.7819487 123.590072 99.6342497 112.359746 100.071631 111.639853 100.071631 110.91996 99.9258369 110.344046L99.9258369 110.344046zM95.0926858 61.6228157C95.3842731 61.0469015 95.5300667 60.3270088 95.3842731 59.7510946 86.7824485 24.6203306 63.8928474 20.1569958 50.9172138 20.7329099 49.3134837 20.7329099 47.7097537 20.8768885 46.1060237 21.1648456L45.8144365 21.1648456C45.3770555 21.1648456 44.793881 21.1648456 44.2107064 21.020867 42.7527701 17.9973177 41.1490401 15.2617254 39.2537228 12.9580687 35.7546755 8.63871248 30.6518982 4.31935624 24.0911845.431935624 23.7995973.143978541 23.3622163 0 22.7790418 0 22.6332482 0 22.3416609 0 22.1958673.143978541 21.4668991.287957083 20.8837245.719892706 20.5921372 1.43978541L17.8220581 6.76699144C17.2388836 7.77484123 17.5304709 9.21462664 18.5510263 9.93451935 21.0295182 11.8062404 23.0706291 13.82194 24.5285654 15.693661 26.4238827 18.1412962 28.1734064 21.1648456 29.4855491 24.7643091 28.7565809 25.3402233 28.1734064 25.7721589 27.4444382 26.060116 14.0314236 30.5234508-7.10865379 44.2014122 2.36793262 82.4997042 2.51372625 83.2195969 2.95110716 83.6515325 3.53428171 84.0834681 3.97166262 84.3714252 4.40904353 84.5154037 4.99221808 84.3714252 5.13801172 84.3714252 5.28380536 84.3714252 5.42959899 84.2274466L93.4889558 62.6306655C94.217924 62.6306655 94.8010985 62.1987298 95.0926858 61.6228157L95.0926858 61.6228157zM43.3359446 63.2065796C40.8574528 63.7824938 38.378961 62.3427084 37.6499928 59.8950732 37.0668182 57.447438 38.5247546 54.9998028 41.0032464 54.2799101 43.4817383 53.7039959 45.9602301 55.1437813 46.6891983 57.5914165 47.2723728 60.0390517 45.8144365 62.4866869 43.3359446 63.2065796L43.3359446 63.2065796zM47.5639601 46.7930259C45.0854683 47.3689401 42.6069764 45.9291547 41.8780083 43.4815195 41.2948337 41.0338843 42.7527701 38.5862491 45.2312619 37.8663564 47.7097537 37.2904422 50.1882456 38.7302276 50.9172138 41.1778628 51.5003883 43.7694765 50.0424519 46.2171118 47.5639601 46.7930259L47.5639601 46.7930259zM59.0816574 59.319159C56.6031656 59.8950732 54.1246738 58.4552878 53.3957056 56.0076526 52.812531 53.5600174 54.2704674 51.1123822 56.7489592 50.536468 59.2274511 49.9605538 61.7059429 51.4003392 62.4349111 53.8479744 63.0180856 56.1516311 61.5601493 58.7432448 59.0816574 59.319159L59.0816574 59.319159zM63.3096729 42.9056053C60.8311811 43.4815195 58.3526892 42.0417341 57.6237211 39.5940989 57.0405465 37.1464637 58.4984829 34.6988284 60.9769747 33.9789357 63.4554665 33.4030216 65.9339584 34.842807 66.6629266 37.2904422 67.2461011 39.8820559 65.7881647 42.3296911 63.3096729 42.9056053L63.3096729 42.9056053zM74.8273702 55.4317384C72.3488784 56.0076526 69.8703866 54.5678671 69.287212 52.1202319 68.7040375 49.6725967 70.1619738 47.2249615 72.6404657 46.6490474 75.1189575 46.0731332 77.5974493 47.5129186 78.3264175 49.9605538 78.7637984 52.408189 77.3058621 54.8558242 74.8273702 55.4317384L74.8273702 55.4317384z"/>
        </g>
      </g>
    </g>
  </g>
</svg>
