<svg xmlns="http://www.w3.org/2000/svg" xmlns:xlink="http://www.w3.org/1999/xlink" width="257" height="257" viewBox="0 0 257 257">
  <defs>
    <circle id="logo-a" cx="124.5" cy="124.5" r="124.5"/>
  </defs>
  <g fill="none" fill-rule="evenodd">
    <circle cx="128" cy="128" r="125" fill="#FFF" transform="translate(.5 .5)"/>
    <g transform="translate(4 4)">
      <mask id="logo-b" fill="#fff">
        <use xlink:href="#logo-a"/>
      </mask>
      <use fill="#FE5003" xlink:href="#logo-a"/>
      <g fill="#FFF" mask="url(#logo-b)">
        <g transform="translate(75 52)">
          <path d="M100.32554 110.026618C100.179163 109.308796 99.5936562 108.878103 99.008149 108.590974L89.7864098 104.284044C89.4936562 104.140479 89.0545258 103.996915 88.6153953 104.140479 87.8835113 104.140479 87.0052504 104.571172 86.56612 105.288994 80.4182939 115.338499 74.4168446 119.932559 63.8777142 122.516717 61.2429316 123.090974 58.7545258 123.521668 56.26612 123.665232 37.0907577 124.383054 28.8936562 107.873153 25.3806127 93.8038457 25.2342359 93.2295883 24.7951055 92.6553309 24.2095982 92.2246378 23.7704678 91.9375091 23.3313374 91.7939448 22.8922069 91.9375091 22.7458301 91.9375091 22.5994533 91.9375091 22.4530765 92.0810735L12.0603229 94.6652319C11.4748156 94.8087962 10.8893084 95.2394893 10.5965548 95.8137467 10.3038011 96.3880042 10.1574243 97.1058259 10.3038011 97.6800834 17.4762649 124.239489 32.4066997 138.308796 53.4849606 138.452361 55.6806127 138.883054 58.608149 140.605826 60.950178 141.897905 63.4385838 143.333549 65.0487287 144.338499 66.6588736 144.338499 66.8052504 144.338499 67.098004 144.338499 67.2443809 144.194935 69.0009026 143.764242 70.1719171 142.04147 71.782062 139.313747 72.9530765 137.44741 74.4168446 135.293945 75.8806127 133.714737 86.1269895 129.55137 93.1530765 123.234539 100.032787 112.036519 100.471917 111.318697 100.471917 110.600875 100.32554 110.026618L100.32554 110.026618zM95.4730565 61.4455446C95.7658101 60.8712871 95.912187 60.1534653 95.7658101 59.5792079 87.1295783 24.549505 64.1484188 20.0990099 51.1208826 20.6732673 49.5107377 20.6732673 47.9005928 20.8168317 46.2904478 21.1039604L45.9976942 21.1039604C45.5585638 21.1039604 44.9730565 21.1039604 44.3875493 20.960396 42.9237812 17.9455446 41.3136362 15.2178218 39.4107377 12.9207921 35.8976942 8.61386139 30.7745058 4.30693069 24.1875493.430693069 23.8947956.143564356 23.4556652 0 22.870158 0 22.7237812 0 22.4310275 0 22.2846507.143564356 21.5527667.287128713 20.9672594.717821782 20.6745058 1.43564356L17.8933464 6.74752475C17.3078391 7.75247525 17.6005928 9.18811881 18.6252304 9.90594059 21.1136362 11.7722772 23.1629116 13.7821782 24.6266797 15.6485149 26.5295783 18.0891089 28.2861 21.1039604 29.6034913 24.6930693 28.8716072 25.2673267 28.2861 25.6980198 27.5542159 25.9851485 14.0875493 30.4356436-7.13708841 44.0742574 2.37740435 82.2623762 2.52378116 82.980198 2.96291159 83.4108911 3.54841884 83.8415842 3.98754927 84.1287129 4.42667971 84.2722772 5.01218695 84.1287129 5.15856377 84.1287129 5.30494058 84.1287129 5.45131739 83.9851485L93.8629116 62.450495C94.5947956 62.450495 95.1803029 62.019802 95.4730565 61.4455446L95.4730565 61.4455446zM43.5092884 63.0247525C41.0208826 63.5990099 38.5324768 62.1633663 37.8005928 59.7227723 37.2150855 57.2821782 38.6788536 54.8415842 41.1672594 54.1237624 43.6556652 53.549505 46.144071 54.9851485 46.8759551 57.4257426 47.4614623 59.8663366 45.9976942 62.3069307 43.5092884 63.0247525L43.5092884 63.0247525zM47.7542159 46.6584158C45.2658101 47.2326733 42.7774043 45.7970297 42.0455203 43.3564356 41.460013 40.9158416 42.9237812 38.4752475 45.412187 37.7574257 47.9005928 37.1831683 50.3889985 38.6188119 51.1208826 41.0594059 51.7063899 43.6435644 50.2426217 46.0841584 47.7542159 46.6584158L47.7542159 46.6584158zM59.3179841 59.1485149C56.8295783 59.7227723 54.3411725 58.2871287 53.6092884 55.8465347 53.0237812 53.4059406 54.4875493 50.9653465 56.9759551 50.3910891 59.4643609 49.8168317 61.9527667 51.2524752 62.6846507 53.6930693 63.270158 55.990099 61.8063899 58.5742574 59.3179841 59.1485149L59.3179841 59.1485149zM63.5629116 42.7821782C61.0745058 43.3564356 58.5861 41.9207921 57.8542159 39.480198 57.2687087 37.039604 58.7324768 34.5990099 61.2208826 33.8811881 63.7092884 33.3069307 66.1976942 34.7425743 66.9295783 37.1831683 67.5150855 39.7673267 66.0513174 42.2079208 63.5629116 42.7821782L63.5629116 42.7821782zM75.1266797 55.2722772C72.6382739 55.8465347 70.1498681 54.4108911 69.5643609 51.970297 68.9788536 49.529703 70.4426217 47.0891089 72.9310275 46.5148515 75.4194333 45.9405941 77.9078391 47.3762376 78.6397232 49.8168317 79.0788536 52.2574257 77.6150855 54.6980198 75.1266797 55.2722772L75.1266797 55.2722772z"/>
        </g>
      </g>
    </g>
  </g>
</svg>
