<?xml version="1.0" encoding="UTF-8"?>
<svg width="257px" height="257px" viewBox="0 0 257 257" version="1.1" xmlns="http://www.w3.org/2000/svg" xmlns:xlink="http://www.w3.org/1999/xlink">
    <!-- Generator: Sketch 52.6 (67491) - http://www.bohemiancoding.com/sketch -->
    <title>nutshell/logo</title>
    <desc>Created with Sketch.</desc>
    <g id="nutshell/logo" stroke="none" stroke-width="1" fill="none" fill-rule="evenodd">
        <rect fill="#FE5003" x="0" y="0" width="257" height="257"></rect>
        <path d="M179.32554,166.026618 C179.179163,165.308796 178.593656,164.878103 178.008149,164.590974 L168.78641,160.284044 C168.493656,160.140479 168.054526,159.996915 167.615395,160.140479 C166.883511,160.140479 166.00525,160.571172 165.56612,161.288994 C159.418294,171.338499 153.416845,175.932559 142.877714,178.516717 C140.242932,179.090974 137.754526,179.521668 135.26612,179.665232 C116.090758,180.383054 107.893656,163.873153 104.380613,149.803846 C104.234236,149.229588 103.795105,148.655331 103.209598,148.224638 C102.770468,147.937509 102.331337,147.793945 101.892207,147.937509 C101.74583,147.937509 101.599453,147.937509 101.453077,148.081073 L91.0603229,150.665232 C90.4748156,150.808796 89.8893084,151.239489 89.5965548,151.813747 C89.3038011,152.388004 89.1574243,153.105826 89.3038011,153.680083 C96.4762649,180.239489 111.4067,194.308796 132.484961,194.452361 C134.680613,194.883054 137.608149,196.605826 139.950178,197.897905 C142.438584,199.333549 144.048729,200.338499 145.658874,200.338499 C145.80525,200.338499 146.098004,200.338499 146.244381,200.194935 C148.000903,199.764242 149.171917,198.04147 150.782062,195.313747 C151.953077,193.44741 153.416845,191.293945 154.880613,189.714737 C165.12699,185.55137 172.153077,179.234539 179.032787,168.036519 C179.471917,167.318697 179.471917,166.600875 179.32554,166.026618 L179.32554,166.026618 Z" id="Shape" fill="#FFFFFF"></path>
        <path d="M174.473057,117.445545 C174.76581,116.871287 174.912187,116.153465 174.76581,115.579208 C166.129578,80.549505 143.148419,76.0990099 130.120883,76.6732673 C128.510738,76.6732673 126.900593,76.8168317 125.290448,77.1039604 L124.997694,77.1039604 C124.558564,77.1039604 123.973057,77.1039604 123.387549,76.960396 C121.923781,73.9455446 120.313636,71.2178218 118.410738,68.9207921 C114.897694,64.6138614 109.774506,60.3069307 103.187549,56.4306931 C102.894796,56.1435644 102.455665,56 101.870158,56 C101.723781,56 101.431028,56 101.284651,56.1435644 C100.552767,56.2871287 99.9672594,56.7178218 99.6745058,57.4356436 L96.8933464,62.7475248 C96.3078391,63.7524752 96.6005928,65.1881188 97.6252304,65.9059406 C100.113636,67.7722772 102.162912,69.7821782 103.62668,71.6485149 C105.529578,74.0891089 107.2861,77.1039604 108.603491,80.6930693 C107.871607,81.2673267 107.2861,81.6980198 106.554216,81.9851485 C93.0875493,86.4356436 71.8629116,100.074257 81.3774043,138.262376 C81.5237812,138.980198 81.9629116,139.410891 82.5484188,139.841584 C82.9875493,140.128713 83.4266797,140.272277 84.012187,140.128713 C84.1585638,140.128713 84.3049406,140.128713 84.4513174,139.985149 L172.862912,118.450495 C173.594796,118.450495 174.180303,118.019802 174.473057,117.445545 L174.473057,117.445545 Z M122.509288,119.024752 C120.020883,119.59901 117.532477,118.163366 116.800593,115.722772 C116.215086,113.282178 117.678854,110.841584 120.167259,110.123762 C122.655665,109.549505 125.144071,110.985149 125.875955,113.425743 C126.461462,115.866337 124.997694,118.306931 122.509288,119.024752 L122.509288,119.024752 Z M126.754216,102.658416 C124.26581,103.232673 121.777404,101.79703 121.04552,99.3564356 C120.460013,96.9158416 121.923781,94.4752475 124.412187,93.7574257 C126.900593,93.1831683 129.388999,94.6188119 130.120883,97.0594059 C130.70639,99.6435644 129.242622,102.084158 126.754216,102.658416 L126.754216,102.658416 Z M138.317984,115.148515 C135.829578,115.722772 133.341172,114.287129 132.609288,111.846535 C132.023781,109.405941 133.487549,106.965347 135.975955,106.391089 C138.464361,105.816832 140.952767,107.252475 141.684651,109.693069 C142.270158,111.990099 140.80639,114.574257 138.317984,115.148515 L138.317984,115.148515 Z M142.562912,98.7821782 C140.074506,99.3564356 137.5861,97.9207921 136.854216,95.480198 C136.268709,93.039604 137.732477,90.5990099 140.220883,89.8811881 C142.709288,89.3069307 145.197694,90.7425743 145.929578,93.1831683 C146.515086,95.7673267 145.051317,98.2079208 142.562912,98.7821782 L142.562912,98.7821782 Z M154.12668,111.272277 C151.638274,111.846535 149.149868,110.410891 148.564361,107.970297 C147.978854,105.529703 149.442622,103.089109 151.931028,102.514851 C154.419433,101.940594 156.907839,103.376238 157.639723,105.816832 C158.078854,108.257426 156.615086,110.69802 154.12668,111.272277 L154.12668,111.272277 Z" id="Shape" fill="#FFFFFF"></path>
    </g>
</svg>