<svg height="257" viewBox="0 0 257 257" width="257" xmlns="http://www.w3.org/2000/svg"><g fill="none" fill-rule="evenodd"><path d="m0 0h257v257h-257z" fill="#fe5003"/><g fill="#fff"><path d="m179.32554 166.026618c-.146377-.717822-.731884-1.148515-1.317391-1.435644l-9.221739-4.30693c-.292754-.143565-.731884-.287129-1.171015-.143565-.731884 0-1.610145.430693-2.049275 1.148515-6.147826 10.049505-12.149275 14.643565-22.688406 17.227723-2.634782.574257-5.123188 1.004951-7.611594 1.148515-19.175362.717822-27.372464-15.792079-30.885507-29.861386-.146377-.574258-.585508-1.148515-1.171015-1.579208-.43913-.287129-.878261-.430693-1.317391-.287129-.146377 0-.292754 0-.43913.143564l-10.3927541 2.584159c-.5855073.143564-1.1710145.574257-1.4637681 1.148515-.2927537.574257-.4391305 1.292079-.2927537 1.866336 7.1724638 26.559406 22.1028989 40.628713 43.1811599 40.772278 2.195652.430693 5.123188 2.153465 7.465217 3.445544 2.488406 1.435644 4.098551 2.440594 5.708696 2.440594.146376 0 .43913 0 .585507-.143564 1.756522-.430693 2.927536-2.153465 4.537681-4.881188 1.171015-1.866337 2.634783-4.019802 4.098551-5.59901 10.246377-4.163367 17.272464-10.480198 24.152174-21.678218.43913-.717822.43913-1.435644.292753-2.009901z"/><path d="m174.473057 117.445545c.292753-.574258.43913-1.29208.292753-1.866337-8.636232-35.029703-31.617391-39.4801981-44.644927-38.9059407-1.610145 0-3.22029.1435644-4.830435.4306931h-.292754c-.43913 0-1.024637 0-1.610145-.1435644-1.463768-3.0148514-3.073913-5.7425742-4.976811-8.0396039-3.513044-4.3069307-8.636232-8.6138614-15.223189-12.490099-.292753-.2871287-.731884-.4306931-1.317391-.4306931-.146377 0-.43913 0-.585507.1435644-.731884.1435643-1.3173916.5742574-1.6101452 1.2920792l-2.7811594 5.3118812c-.5855073 1.0049504-.2927536 2.440594.731884 3.1584158 2.4884056 1.8663366 4.5376816 3.8762376 6.0014496 5.7425743 1.902898 2.440594 3.65942 5.4554455 4.976811 9.0445544-.731884.5742574-1.317391 1.0049505-2.049275 1.2920792-13.4666667 4.4504951-34.6913044 18.0891085-25.1768117 56.2772275.1463769.717822.5855073 1.148515 1.1710145 1.579208.4391305.287129.8782609.430693 1.4637682.287129.1463768 0 .2927536 0 .4391304-.143564l88.4115946-21.534654c.731884 0 1.317391-.430693 1.610145-1.00495zm-51.963769 1.579207c-2.488405.574258-4.976811-.861386-5.708695-3.30198-.585507-2.440594.878261-4.881188 3.366666-5.59901 2.488406-.574257 4.976812.861387 5.708696 3.301981.585507 2.440594-.878261 4.881188-3.366667 5.599009zm4.244928-16.366336c-2.488406.574257-4.976812-.861386-5.708696-3.3019804-.585507-2.440594.878261-4.8811881 3.366667-5.5990099 2.488406-.5742574 4.976812.8613862 5.708696 3.3019802.585507 2.5841585-.878261 5.0247521-3.366667 5.5990101zm11.563768 12.490099c-2.488406.574257-4.976812-.861386-5.708696-3.30198-.585507-2.440594.878261-4.881188 3.366667-5.455446 2.488406-.574257 4.976812.861386 5.708696 3.30198.585507 2.29703-.878261 4.881188-3.366667 5.455446zm4.244928-16.3663368c-2.488406.5742574-4.976812-.8613861-5.708696-3.3019802-.585507-2.440594.878261-4.8811881 3.366667-5.5990099 2.488405-.5742574 4.976811.8613862 5.708695 3.3019802.585508 2.5841584-.878261 5.0247525-3.366666 5.5990099zm11.563768 12.4900988c-2.488406.574258-4.976812-.861386-5.562319-3.30198s.878261-4.881188 3.366667-5.455446c2.488405-.574257 4.976811.861387 5.708695 3.301981.439131 2.440594-1.024637 4.881188-3.513043 5.455445z"/></g></g></svg>