<svg height="257" viewBox="0 0 257 257" width="257" xmlns="http://www.w3.org/2000/svg" xmlns:xlink="http://www.w3.org/1999/xlink"><defs><circle id="a" cx="125.5" cy="125.5" r="125.5"/><mask id="b" fill="#fff"><use fill="none" xlink:href="#a"/></mask></defs><g fill="none" fill-rule="evenodd" transform="translate(3 3)"><use fill="#fe5003" xlink:href="#a"/><g fill="#fff" mask="url(#b)"><g transform="translate(76 53)"><path d="m100.32554 110.026618c-.146377-.717822-.7318838-1.148515-1.317391-1.435644l-9.2217392-4.30693c-.2927536-.143565-.731884-.287129-1.1710145-.143565-.731884 0-1.6101449.430693-2.0492753 1.148515-6.1478261 10.049505-12.1492754 14.643565-22.6884058 17.227723-2.6347826.574257-5.1231884 1.004951-7.6115942 1.148515-19.1753623.717822-27.3724638-15.792079-30.8855073-29.8613863-.1463768-.5742574-.5855072-1.1485148-1.1710145-1.5792079-.4391304-.2871287-.8782608-.430693-1.3173913-.2871287-.1463768 0-.2927536 0-.4391304.1435644l-10.3927536 2.5841584c-.5855073.1435643-1.1710145.5742574-1.4637681 1.1485148-.2927537.5742575-.4391305 1.2920792-.2927537 1.8663367 7.1724638 26.5594056 22.1028986 40.6287126 43.1811595 40.7722776 2.1956521.430693 5.1231884 2.153465 7.4652174 3.445544 2.4884058 1.435644 4.0985507 2.440594 5.7086956 2.440594.1463768 0 .4391304 0 .5855073-.143564 1.7565217-.430693 2.9275362-2.153465 4.5376811-4.881188 1.1710145-1.866337 2.6347826-4.019802 4.0985507-5.59901 10.2463768-4.163367 17.2724638-10.480198 24.1521743-21.678218.43913-.717822.43913-1.435644.292753-2.009901z"/><path d="m95.4730565 61.4455446c.2927536-.5742575.4391305-1.2920793.2927536-1.8663367-8.6362318-35.0297029-31.6173913-39.480198-44.6449275-38.9059406-1.6101449 0-3.2202898.1435644-4.8304348.4306931h-.2927536c-.4391304 0-1.0246377 0-1.6101449-.1435644-1.4637681-3.0148514-3.0739131-5.7425742-4.9768116-8.0396039-3.5130435-4.30693071-8.6362319-8.61386141-15.2231884-12.49009903-.2927537-.28712871-.7318841-.43069307-1.3173913-.43069307-.1463768 0-.4391305 0-.5855073.14356436-.731884.14356435-1.3173913.57425742-1.6101449 1.2920792l-2.7811594 5.31188119c-.5855073 1.0049505-.2927536 2.44059406.731884 3.15841584 2.4884058 1.86633661 4.5376812 3.87623761 6.0014493 5.74257431 1.9028986 2.440594 3.6594203 5.4554455 4.9768116 9.0445544-.7318841.5742574-1.3173913 1.0049505-2.0492754 1.2920792-13.4666666 4.4504951-34.69130431 18.0891089-25.17681155 56.2772277.14637681.7178218.58550724 1.1485149 1.17101449 1.579208.43913043.2871287.87826087.430693 1.46376811.2871287.14637682 0 .29275363 0 .43913044-.1435644l88.41159421-21.5346535c.731884 0 1.3173913-.430693 1.6101449-1.0049504zm-51.9637681 1.5792079c-2.4884058.5742574-4.9768116-.8613862-5.7086956-3.3019802-.5855073-2.4405941.8782608-4.8811881 3.3666666-5.5990099 2.4884058-.5742574 4.9768116.8613861 5.7086957 3.3019802.5855072 2.440594-.8782609 4.8811881-3.3666667 5.5990099zm4.2449275-16.3663367c-2.4884058.5742575-4.9768116-.8613861-5.7086956-3.3019802-.5855073-2.440594.8782609-4.8811881 3.3666667-5.5990099 2.4884058-.5742574 4.9768115.8613862 5.7086956 3.3019802.5855073 2.5841585-.8782609 5.0247525-3.3666667 5.5990099zm11.5637682 12.4900991c-2.4884058.5742574-4.9768116-.8613862-5.7086957-3.3019802-.5855072-2.4405941.8782609-4.8811882 3.3666667-5.4554456s4.9768116.8613861 5.7086956 3.3019802c.5855073 2.2970297-.8782608 4.8811881-3.3666666 5.4554456zm4.2449275-16.3663367c-2.4884058.5742574-4.9768116-.8613861-5.7086957-3.3019802-.5855072-2.440594.8782609-4.8811881 3.3666667-5.5990099 2.4884058-.5742574 4.9768116.8613862 5.7086957 3.3019802.5855072 2.5841584-.8782609 5.0247525-3.3666667 5.5990099zm11.5637681 12.490099c-2.4884058.5742575-4.9768116-.8613861-5.5623188-3.3019802-.5855073-2.440594.8782608-4.8811881 3.3666666-5.4554455s4.9768116.8613861 5.7086957 3.3019802c.4391304 2.440594-1.0246377 4.8811881-3.5130435 5.4554455z"/></g></g></g></svg>