<svg xmlns="http://www.w3.org/2000/svg" xmlns:xlink="http://www.w3.org/1999/xlink" width="640" height="360" viewBox="0 0 640 360">
  <defs>
    <radialGradient id="picture-b" cx="1.211%" cy="62.557%" r="133.945%" fx="1.211%" fy="62.557%" gradientTransform="scale(.5625 1) rotate(-17.502 .017 .595)">
      <stop offset="0%" stop-color="#FFF"/>
      <stop offset="100%" stop-color="#E9E9F6"/>
    </radialGradient>
    <rect id="picture-a" width="640" height="360"/>
    <linearGradient id="picture-d" x1="50%" x2="50%" y1="100%" y2="0%">
      <stop offset="0%" stop-color="#ED9D4A"/>
      <stop offset="100%" stop-color="#E97423"/>
    </linearGradient>
  </defs>
  <g fill="none" fill-rule="evenodd">
    <mask id="picture-c" fill="#fff">
      <use xlink:href="#picture-a"/>
    </mask>
    <use fill="url(#picture-b)" xlink:href="#picture-a"/>
    <rect width="640" height="360" fill="#E98F33" mask="url(#picture-c)"/>
    <rect width="640" height="360" fill="url(#picture-d)" mask="url(#picture-c)"/>
    <g fill="#FFF" mask="url(#picture-c)">
      <g transform="translate(90 107)">
        <path d="M100.32554 110.785422C100.179163 110.06265 99.5936562 109.628987 99.008149 109.339878L89.7864098 105.003244C89.4936562 104.85869 89.0545258 104.714135 88.6153953 104.85869 87.8835113 104.85869 87.0052504 105.292353 86.56612 106.015125 80.4182939 116.133937 74.4168446 120.75968 63.8777142 123.36166 61.2429316 123.939878 58.7545258 124.373541 56.26612 124.518096 37.0907577 125.240868 28.8936562 108.617105 25.3806127 94.4507688 25.2342359 93.872551 24.7951055 93.2943332 24.2095982 92.8606698 23.7704678 92.5715609 23.3313374 92.4270064 22.8922069 92.5715609 22.7458301 92.5715609 22.5994533 92.5715609 22.4530765 92.7161154L12.0603229 95.3180956C11.4748156 95.46265 10.8893084 95.8963134 10.5965548 96.4745312 10.3038011 97.052749 10.1574243 97.7755213 10.3038011 98.3537391 17.4762649 125.096313 32.4066997 139.26265 53.4849606 139.407204 55.6806127 139.840868 58.608149 141.575521 60.950178 142.876511 63.4385838 144.322056 65.0487287 145.333937 66.6588736 145.333937 66.8052504 145.333937 67.098004 145.333937 67.2443809 145.189383 69.0009026 144.755719 70.1719171 143.021066 71.782062 140.274531 72.9530765 138.395323 74.4168446 136.227006 75.8806127 134.636907 86.1269895 130.444828 93.1530765 124.084432 100.032787 112.809185 100.471917 112.086412 100.471917 111.36364 100.32554 110.785422L100.32554 110.785422zM95.4730565 61.8693069C95.7658101 61.2910891 95.912187 60.5683168 95.7658101 59.990099 87.1295783 24.7188119 64.1484188 20.2376238 51.1208826 20.8158416 49.5107377 20.8158416 47.9005928 20.960396 46.2904478 21.249505L45.9976942 21.249505C45.5585638 21.249505 44.9730565 21.249505 44.3875493 21.1049505 42.9237812 18.0693069 41.3136362 15.3227723 39.4107377 13.009901 35.8976942 8.67326733 30.7745058 4.33663366 24.1875493.433663366 23.8947956.144554455 23.4556652 0 22.870158 0 22.7237812 0 22.4310275 0 22.2846507.144554455 21.5527667.289108911 20.9672594.722772277 20.6745058 1.44554455L17.8933464 6.79405941C17.3078391 7.80594059 17.6005928 9.25148515 18.6252304 9.97425743 21.1136362 11.8534653 23.1629116 13.8772277 24.6266797 15.7564356 26.5295783 18.2138614 28.2861 21.249505 29.6034913 24.8633663 28.8716072 25.4415842 28.2861 25.8752475 27.5542159 26.1643564 14.0875493 30.6455446-7.13708841 44.3782178 2.37740435 82.829703 2.52378116 83.5524752 2.96291159 83.9861386 3.54841884 84.419802 3.98754927 84.7089109 4.42667971 84.8534653 5.01218695 84.7089109 5.15856377 84.7089109 5.30494058 84.7089109 5.45131739 84.5643564L93.8629116 62.8811881C94.5947956 62.8811881 95.1803029 62.4475248 95.4730565 61.8693069L95.4730565 61.8693069zM43.5092884 63.4594059C41.0208826 64.0376238 38.5324768 62.5920792 37.8005928 60.1346535 37.2150855 57.6772277 38.6788536 55.219802 41.1672594 54.4970297 43.6556652 53.9188119 46.144071 55.3643564 46.8759551 57.8217822 47.4614623 60.2792079 45.9976942 62.7366337 43.5092884 63.4594059L43.5092884 63.4594059zM47.7542159 46.980198C45.2658101 47.5584158 42.7774043 46.1128713 42.0455203 43.6554455 41.460013 41.1980198 42.9237812 38.7405941 45.412187 38.0178218 47.9005928 37.439604 50.3889985 38.8851485 51.1208826 41.3425743 51.7063899 43.9445545 50.2426217 46.4019802 47.7542159 46.980198L47.7542159 46.980198zM59.3179841 59.5564356C56.8295783 60.1346535 54.3411725 58.6891089 53.6092884 56.2316832 53.0237812 53.7742574 54.4875493 51.3168317 56.9759551 50.7386139 59.4643609 50.160396 61.9527667 51.6059406 62.6846507 54.0633663 63.270158 56.3762376 61.8063899 58.9782178 59.3179841 59.5564356L59.3179841 59.5564356zM63.5629116 43.0772277C61.0745058 43.6554455 58.5861 42.209901 57.8542159 39.7524752 57.2687087 37.2950495 58.7324768 34.8376238 61.2208826 34.1148515 63.7092884 33.5366337 66.1976942 34.9821782 66.9295783 37.439604 67.5150855 40.0415842 66.0513174 42.4990099 63.5629116 43.0772277L63.5629116 43.0772277zM75.1266797 55.6534653C72.6382739 56.2316832 70.1498681 54.7861386 69.5643609 52.3287129 68.9788536 49.8712871 70.4426217 47.4138614 72.9310275 46.8356436 75.4194333 46.2574257 77.9078391 47.7029703 78.6397232 50.160396 79.0788536 52.6178218 77.6150855 55.0752475 75.1266797 55.6534653L75.1266797 55.6534653z"/>
      </g>
    </g>
    <text fill="#FFF" font-family="HelveticaNeue-Medium, Helvetica Neue" font-size="74" font-weight="400" mask="url(#picture-c)">
      <tspan x="227.88" y="209">Nutshell</tspan>
    </text>
  </g>
</svg>
