<svg height="360" viewBox="0 0 640 360" width="640" xmlns="http://www.w3.org/2000/svg"><g fill="none" fill-rule="evenodd"><path d="m0 0h640v360h-640z" fill="#fe5003"/><g fill="#fff" fill-rule="nonzero" transform="translate(140 142)"><path d="m53.58 0h-7.8c-.78 0-1.38.6031746-1.38 1.38730159v40.65396821c0 1.6888889 0 3.3777778.06 5.0666667s.06 3.3174603.06 4.8253968v3.3174604h-.12c-.24-.4825397-.66-1.2063493-1.14-2.0507937s-1.02-1.7492063-1.56-2.7746032c-.54-1.0253968-1.14-1.9904762-1.68-2.9555555-.54-.9650794-1.08-1.8698413-1.62-2.6539683l-26.94-44.15238094c-.24-.42222222-.66-.66349206-1.14-.66349206h-8.94c-.78 0-1.38.6031746-1.38 1.38730159v70.57142861c0 .7841269.6 1.3873015 1.38 1.3873015h7.74c.78 0 1.38-.6031746 1.38-1.3873015v-40.5936508c0-1.568254 0-3.2571429-.06-5.0063492-.06-1.7492064-.06-3.2571429-.06-4.7047619v-3.1968254l.12-.0603175c.6.9650794 1.38 2.3523809 2.46 4.1619048 1.08 1.8698412 2.1 3.4984127 2.94 4.8253968l28.32 45.2984127c.24.4222222.66.663492 1.14.663492h8.22c.78 0 1.38-.6031746 1.38-1.3873015v-70.57142861c-.06-.78412699-.66-1.38730159-1.38-1.38730159z"/><path d="m109.68 18.5174603h-7.74c-.78 0-1.38.6031746-1.38 1.3873016v30.7015873c0 4.4634921-.96 7.9619048-2.94 10.3746032s-4.74 3.6793651-8.28 3.6793651-6.3-1.1460318-8.28-3.3777778-2.94-6.152381-2.94-11.7619048v-29.615873c0-.784127-.6-1.3873016-1.38-1.3873016h-7.74c-.78 0-1.38.6031746-1.38 1.3873016v30.0380952c0 8.1428572 1.68 14.3555556 4.92 18.3968254 3.24 4.0412699 7.98 6.152381 14.34 6.152381 2.7 0 5.4-.5428572 7.86-1.6888889 2.34-1.0253968 4.32-2.6539683 5.76-4.7047619l.06.0603175v3.7396825c0 .784127.6 1.3873016 1.38 1.3873016h7.74c.78 0 1.38-.6031746 1.38-1.3873016v-51.9936508c0-.784127-.6-1.3873016-1.38-1.3873016z"/><path d="m151.32 18.5174603h-11.76c-.06 0-.06-.0603174-.06-.0603174v-16.64761909c0-.78412698-.6-1.38730159-1.38-1.38730159-.12 0-.24 0-.36.06031746l-7.74 2.05079365c-.6.18095238-1.02.72380953-1.02 1.32698413v14.59682544c0 .0603174-.06.0603174-.06.0603174h-6.06c-.78 0-1.38.6031746-1.38 1.3873016v7.0571429c0 .7841269.6 1.3873015 1.32 1.3873015h6.06c.06 0 .06.0603175.06.0603175v31.6666667c0 4.8857143 1.14 8.5650793 3.3 10.9174603 2.16 2.3523809 5.16 3.5587302 9 3.5587302 1.98 0 3.9-.2412699 5.82-.7238096 1.38-.3619047 2.7-.8444444 3.96-1.5079365.42-.2412698.66-.6031746.72-1.0253968l.78-6.2730159c.12-.7238095-.42-1.447619-1.2-1.5079365-.24 0-.42 0-.66.0603175-.42.1809524-.84.3015873-1.32.4825397-1.38.4222222-2.82.663492-4.26.663492-2.04 0-3.48-.4825397-4.38-1.3873016s-1.32-2.6539682-1.32-5.247619v-29.6761905c0-.0603175.06-.0603175.06-.0603175h11.76c.78 0 1.38-.6031746 1.38-1.3873015v-7.0571429c.06-.784127-.54-1.3873016-1.26-1.3873016z"/><path d="m198.42 46.8063492c-1.74-1.5079365-3.66-2.7142857-5.76-3.6793651-2.28-1.0857143-4.92-2.231746-7.98-3.4380952-2.1-.8444445-3.78-1.6285714-5.04-2.2920635-1.08-.5428571-2.1-1.2063492-3.06-1.9301587-.66-.4825397-1.2-1.1460318-1.56-1.8698413-.3-.6031746-.42-1.2666667-.42-1.9301587 0-1.4476191.66-2.8349207 1.8-3.6793651 1.2-.9650794 3.06-1.4476191 5.76-1.4476191 2.52 0 4.98.3619048 7.32 1.1460318 1.92.663492 3.78 1.568254 5.52 2.7142857.66.4222222 1.5.2412698 1.92-.4222222 0 0 0-.0603175.06-.0603175l3.24-5.6698413c.36-.6031746.18-1.3873015-.42-1.8095238-2.28-1.447619-4.74-2.6539682-7.32-3.4984127-3.24-1.0857142-6.6-1.6285714-9.96-1.6285714-2.52 0-4.98.3015873-7.38.9047619-2.1.5428572-4.08 1.4476191-5.88 2.7746032-1.62 1.2063492-2.94 2.7746032-3.78 4.584127-.9 1.9904762-1.38 4.1619047-1.32 6.3333333-.06 1.9301587.24 3.8603175.84 5.7301587.54 1.6888889 1.5 3.1968254 2.7 4.4031746 1.44 1.5079365 3.12 2.7142858 4.92 3.7396826 2.4 1.3269841 4.86 2.4730159 7.38 3.3777778 3.18 1.2063492 6.24 2.5936508 9.24 4.2222222 2.28 1.2666666 3.42 2.9555555 3.42 5.0666666.06 1.3873016-.42 2.7746032-1.44 3.8-1.56 1.6285715-4.38 2.352381-8.58 2.352381-2.7-.0603175-5.34-.4825397-7.92-1.3873016-2.34-.784127-4.56-1.8698413-6.66-3.2571428-.66-.4222223-1.5-.2412699-1.92.4222222v.0603174l-3.36 5.7301588c-.36.6031746-.18 1.3873016.42 1.8095238 2.64 1.8095238 5.52 3.2571428 8.52 4.3428571 3.54 1.3269841 7.26 2.0507937 11.04 2.0507937 2.58 0 5.16-.3015873 7.74-.8444445 2.28-.4825397 4.44-1.447619 6.42-2.7142857 1.86-1.2666667 3.42-3.015873 4.5-5.0063492 1.2-2.4126984 1.8-5.0666667 1.68-7.7809524.06-2.231746-.3-4.463492-1.14-6.5746031-.9-1.7492064-2.04-3.3777778-3.54-4.6444445z"/><path d="m237 17.3111111c-2.7 0-5.4.5428572-7.86 1.6888889-2.28 1.0253968-4.26 2.6539683-5.76 4.7047619l-.06-.0603175v-21.83492059c0-.78412698-.6-1.38730159-1.38-1.38730159-.12 0-.24 0-.36.06031746l-7.74 2.05079365c-.6.18095238-1.02.72380953-1.02 1.32698413v68.09841274c0 .7841269.6 1.3873015 1.38 1.3873015h7.74c.78 0 1.38-.6031746 1.38-1.3873015v-30.7015873c0-4.4634921.96-7.9619048 2.94-10.3746032s4.74-3.6793651 8.28-3.6793651 6.3 1.1460317 8.22 3.3777778c1.92 2.231746 2.94 6.1523809 2.94 11.7619047v29.6761905c0 .784127.6 1.3873016 1.38 1.3873016h7.74c.78 0 1.38-.6031746 1.38-1.3873016v-30.0984127c0-8.1428571-1.68-14.3555555-4.92-18.3968254-3.24-4.0412698-7.92-6.2126984-14.28-6.2126984z"/><path d="m335.22.72380952c-.36-.24126984-.78-.36190476-1.2-.24126984l-7.74 2.05079365c-.6.18095238-1.02.72380953-1.02 1.32698413v68.09841274c0 .7841269.6 1.3873015 1.38 1.3873015h7.74c.78 0 1.38-.6031746 1.38-1.3873015v-70.14920639c0-.42222222-.24-.84444444-.54-1.08571429z"/><path d="m359.46.72380952c-.36-.24126984-.78-.36190476-1.2-.24126984l-7.74 2.05079365c-.6.18095238-1.02.72380953-1.02 1.32698413v68.09841274c0 .7841269.6 1.3873015 1.38 1.3873015h7.74c.78 0 1.38-.6031746 1.38-1.3873015v-70.14920639c0-.42222222-.18-.84444444-.54-1.08571429z"/><path d="m313.98 59.1111111c-.12-.3015873-.3-.6031746-.6-.7238095l-4.38-1.9904762c-.54-.2412698-1.14-.0603175-1.5.4825397-2.88 4.8857143-5.7 6.9968254-10.62 8.263492-1.14.3015873-2.34.4825397-3.54.5428572-9 .3619047-12.84-7.6-14.46-14.3555556-.06-.3015873-.24-.5428571-.54-.7238095-.18-.1206349-.42-.1809524-.66-.1809524-.06 0-.18 0-.24.0603175l-4.86 1.2666667c-.6.1809523-.96.7841269-.84 1.447619 3.36 12.7269841 10.38 19.5428571 20.22 19.5428571 1.08.1809524 2.4 1.0253969 3.48 1.6888889 1.08.6634921 1.92 1.2063492 2.64 1.1460318l.3-.0603175c.84-.1809524 1.38-1.0857143 2.16-2.3523809.54-.9650794 1.2-1.8698413 1.92-2.6539683 4.8-1.9904762 8.1-5.0063492 11.28-10.4349206.24-.3015873.3-.6634921.24-.9650794z"/><path d="m311.58 36.2507937c.18-.3015874.24-.6031747.12-.904762-4.08-16.8285714-14.82-18.9396825-20.88-18.6984127-.78.0603175-1.56.120635-2.28.2412699h-.12c-.24 0-.48-.0603175-.72-.1206349-.6-1.3873016-1.38-2.6539683-2.28-3.8603175-1.98-2.4126984-4.38-4.46349206-7.14-6.03174602-.18-.12063492-.42-.18095238-.66-.18095238-.42 0-.84.24126984-1.02.66349206l-1.26 2.53333333c-.24.54285711-.12 1.14603171.3 1.50793651 1.02.784127 1.98 1.7492063 2.82 2.7746032.96 1.3269841 1.74 2.7746031 2.34 4.3428571-.3.2412699-.6.4825397-.96.6031746-6.3 2.2920635-16.26 8.8666667-11.82 27.2031746.06.3015873.24.6031746.54.7238095.18.120635.42.1809524.66.1809524.06 0 .18 0 .24-.0603174l41.34-10.3746032c.36-.0603175.6-.2412698.78-.5428571zm-24.36.7238095c-1.2.3015873-2.34-.4222222-2.64-1.568254-.3-1.2063492.42-2.3523809 1.56-2.6539682s2.34.4222222 2.64 1.5682539c.3 1.1460318-.42 2.352381-1.56 2.6539683zm1.98-7.8412699c-1.2.3015873-2.34-.4222222-2.64-1.5682539-.3-1.2063492.42-2.352381 1.56-2.6539683 1.2-.3015873 2.34.4222222 2.64 1.568254.3 1.1460317-.36 2.3523809-1.56 2.6539682zm5.4 5.9714286c-1.14.3015873-2.34-.4222222-2.64-1.6285714-.3-1.1460318.42-2.352381 1.62-2.6539683 1.14-.3015873 2.34.4222222 2.64 1.568254.24 1.2666667-.42 2.4126984-1.62 2.7142857zm1.98-7.8412698c-1.14.3015873-2.34-.4222223-2.64-1.6285715-.3-1.1460317.42-2.3523809 1.62-2.6539682 1.14-.3015873 2.34.4222222 2.64 1.5682539.3 1.2063493-.42 2.4126985-1.62 2.7142858zm5.4 5.9714285c-1.2.3015873-2.34-.4222222-2.64-1.6285714s.42-2.3523809 1.62-2.6539682 2.34.4222222 2.64 1.6285714c.3 1.2063492-.42 2.3523809-1.62 2.6539682z"/></g></g></svg>